# xmcd CD database file
#
# Track frame offsets:
#	150
#	22802
#	41407
#	62380
#	89152
#	113832
#	142387
#	156207
#	176890
#	198137
#	230660
#	248987
#	255450
#
# Disc length: 3569 seconds
#
# Revision: 5
# Processed by: cddbd v1.5.2PL0 Copyright (c) Steve Scherf et al.
# Submitted via: CDex 1.82
#
DISCID=b20def0d
DTITLE=The Blue Hawaiians - Savage Night
DYEAR=1999
DGENRE=Rock
TTITLE0=A Cheat
TTITLE1=Savage Night
TTITLE2=Flesh and Soul
TTITLE3=Shakin' All Over
TTITLE4=Experiment In Terror
TTITLE5=Highlife
TTITLE6=Sway
TTITLE7=Lonely Star
TTITLE8=Jockey Full Of Bourbon
TTITLE9=Trouble Bay
TTITLE10=Hot Rods To Honolulu
TTITLE11=Hammond Organ Unknown
TTITLE12=Unknown
EXTD=YEAR: 1999
EXTT0=
EXTT1=
EXTT2=
EXTT3=
EXTT4=
EXTT5=
EXTT6=
EXTT7=
EXTT8=
EXTT9=
EXTT10=
EXTT11=
EXTT12=
PLAYORDER=
